<svg width="18" height="18" viewBox="0 0 20 20" fill="none" xmlns="http://www.w3.org/2000/svg">
<path d="M10.625 5.83464C10.625 5.48946 10.3452 5.20964 9.99999 5.20964C9.65481 5.20964 9.37499 5.48946 9.37499 5.83464V10.8346C9.37499 11.1798 9.65481 11.4596 9.99999 11.4596C10.3452 11.4596 10.625 11.1798 10.625 10.8346V5.83464Z" fill="#FFBA05"/>
<path fill-rule="evenodd" clip-rule="evenodd" d="M11.9489 1.45723C10.7083 0.904882 9.29164 0.904882 8.05105 1.45723C7.27536 1.80259 6.64897 2.46443 6.00212 3.37999C5.35731 4.29266 4.63518 5.54343 3.70227 7.15928L3.66818 7.21833C2.73526 8.83417 2.01313 10.0849 1.54514 11.0997C1.07567 12.1177 0.815692 12.9911 0.904447 13.8355C1.0464 15.1861 1.75475 16.413 2.85339 17.2112C3.54032 17.7103 4.42669 17.9218 5.54301 18.0242C6.6558 18.1263 8.10005 18.1263 9.96585 18.1263H10.0341C11.8999 18.1263 13.3442 18.1263 14.457 18.0242C15.5733 17.9218 16.4597 17.7103 17.1466 17.2112C18.2452 16.413 18.9536 15.1861 19.0955 13.8355C19.1843 12.9911 18.9243 12.1177 18.4548 11.0997C17.9869 10.0849 17.2647 8.83415 16.3318 7.21828L16.2977 7.15921C15.3648 5.54339 14.6427 4.29264 13.9979 3.37999C13.351 2.46443 12.7246 1.80259 11.9489 1.45723ZM8.55947 2.59916C9.47643 2.1909 10.5236 2.1909 11.4405 2.59916C11.9016 2.80446 12.3673 3.23835 12.977 4.10127C13.5847 4.96153 14.2787 6.16231 15.2322 7.8138C16.1857 9.46529 16.8786 10.6667 17.3197 11.6232C17.7622 12.5826 17.9051 13.2029 17.8524 13.7048C17.7475 14.7031 17.2239 15.6099 16.4119 16.1999C16.0035 16.4966 15.3949 16.6829 14.3428 16.7794C13.2939 16.8757 11.907 16.8763 9.99999 16.8763C8.09302 16.8763 6.70611 16.8757 5.65721 16.7794C4.60506 16.6829 3.99647 16.4966 3.58812 16.1999C2.77608 15.6099 2.25252 14.7031 2.1476 13.7048C2.09484 13.2029 2.23777 12.5826 2.68024 11.6232C3.12136 10.6667 3.81427 9.46529 4.76775 7.8138C5.72124 6.16231 6.41524 4.96153 7.02302 4.10127C7.63269 3.23835 8.09837 2.80446 8.55947 2.59916Z" fill="#FFBA05"/>
<path d="M10.8334 13.3346C10.8334 13.7949 10.4603 14.168 10 14.168C9.53979 14.168 9.16669 13.7949 9.16669 13.3346C9.16669 12.8744 9.53979 12.5013 10 12.5013C10.4603 12.5013 10.8334 12.8744 10.8334 13.3346Z" fill="#FFBA05"/>
</svg>
