<svg width="16" height="16" viewBox="0 0 16 16" fill="none" xmlns="http://www.w3.org/2000/svg">
<g clip-path="url(#clip0_2885_25318)">
<path fill-rule="evenodd" clip-rule="evenodd" d="M8.50016 3.33203C8.50016 3.05589 8.2763 2.83203 8.00016 2.83203C7.72402 2.83203 7.50016 3.05589 7.50016 3.33203V3.53742C7.28233 3.59207 7.06858 3.67746 6.86506 3.79496C5.05048 4.8426 5.28111 7.53129 7.24758 8.25461L7.50016 8.34753V11.4783C7.14358 11.3777 6.825 11.1434 6.62553 10.7979L6.37515 10.3642C6.23708 10.1251 5.93129 10.0431 5.69214 10.1812C5.453 10.3193 5.37106 10.6251 5.50913 10.8642L5.75951 11.2979C6.14514 11.9658 6.79528 12.3851 7.50016 12.501V12.6654C7.50016 12.9415 7.72402 13.1654 8.00016 13.1654C8.2763 13.1654 8.50016 12.9415 8.50016 12.6654V12.46C8.71804 12.4054 8.93185 12.32 9.13542 12.2024C10.95 11.1548 10.7194 8.46609 8.75287 7.74278L8.50016 7.64984L8.50016 4.51904C8.8568 4.6196 9.17545 4.854 9.37494 5.19953L9.62532 5.6332C9.76339 5.87234 10.0692 5.95428 10.3083 5.81621C10.5475 5.67814 10.6294 5.37234 10.4913 5.1332L10.241 4.69953C9.8553 4.03154 9.2051 3.61224 8.50016 3.49636V3.33203ZM7.36506 4.66099C7.40943 4.63537 7.45452 4.61234 7.50016 4.59185L7.50016 7.27866C6.41551 6.79966 6.31392 5.26786 7.36506 4.66099ZM8.63542 11.3364C8.591 11.3621 8.54586 11.3851 8.50016 11.4056V8.71868C9.58496 9.1976 9.6866 10.7295 8.63542 11.3364Z" fill="#FE9515"/>
<path fill-rule="evenodd" clip-rule="evenodd" d="M8.00016 0.832031C4.04212 0.832031 0.833496 4.04066 0.833496 7.9987C0.833496 11.9567 4.04212 15.1654 8.00016 15.1654C11.9582 15.1654 15.1668 11.9567 15.1668 7.9987C15.1668 4.04066 11.9582 0.832031 8.00016 0.832031ZM1.8335 7.9987C1.8335 4.59294 4.59441 1.83203 8.00016 1.83203C11.4059 1.83203 14.1668 4.59294 14.1668 7.9987C14.1668 11.4045 11.4059 14.1654 8.00016 14.1654C4.59441 14.1654 1.8335 11.4045 1.8335 7.9987Z" fill="#FE9515"/>
</g>
<defs>
<clipPath id="clip0_2885_25318">
<rect width="16" height="16" fill="white"/>
</clipPath>
</defs>
</svg>
