<svg xmlns="http://www.w3.org/2000/svg" width="16" height="16" viewBox="0 0 16 16" fill="none">
  <g clip-path="url(#clip0_129_41255)">
    <path d="M11.6881 7.01868C11.8825 6.82255 11.8811 6.50597 11.685 6.31158C11.4888 6.11719 11.1723 6.1186 10.9779 6.31473L9.81301 7.49005C9.34025 7.96704 9.01489 8.29424 8.7392 8.51564C8.47141 8.73071 8.2994 8.80449 8.14534 8.82413C8.04861 8.83646 7.95074 8.83646 7.85401 8.82413C7.69995 8.80449 7.52794 8.73071 7.26014 8.51565C6.98446 8.29424 6.6591 7.96704 6.18634 7.49005L5.02147 6.31473C4.82708 6.1186 4.5105 6.11719 4.31437 6.31158C4.11824 6.50597 4.11682 6.82255 4.31121 7.01868L5.49707 8.21517C5.94369 8.66581 6.30874 9.03413 6.63398 9.29534C6.9722 9.56695 7.31549 9.76358 7.72757 9.8161C7.90825 9.83913 8.0911 9.83913 8.27178 9.8161C8.68386 9.76358 9.02715 9.56695 9.36537 9.29533C9.69061 9.03413 10.0556 8.66583 10.5023 8.21519L11.6881 7.01868Z" fill="#1573FE"/>
    <path fill-rule="evenodd" clip-rule="evenodd" d="M7.99967 0.833374C4.04163 0.833374 0.833008 4.042 0.833008 8.00004C0.833008 11.9581 4.04163 15.1667 7.99967 15.1667C11.9577 15.1667 15.1663 11.9581 15.1663 8.00004C15.1663 4.042 11.9577 0.833374 7.99967 0.833374ZM1.83301 8.00004C1.83301 4.59428 4.59392 1.83337 7.99967 1.83337C11.4054 1.83337 14.1663 4.59428 14.1663 8.00004C14.1663 11.4058 11.4054 14.1667 7.99967 14.1667C4.59392 14.1667 1.83301 11.4058 1.83301 8.00004Z" fill="#1573FE"/>
  </g>
  <defs>
    <clipPath id="clip0_129_41255">
      <rect width="16" height="16" fill="white"/>
    </clipPath>
  </defs>
</svg>