<svg xmlns="http://www.w3.org/2000/svg" width="24" height="25" viewBox="0 0 24 25" fill="none">
  <path fill-rule="evenodd" clip-rule="evenodd" d="M22.712 5.9115C23.0429 5.67492 23.0966 5.24341 22.8318 4.94768C22.567 4.65196 22.0841 4.60402 21.7531 4.84059L18.3505 7.27282C16.6342 5.89566 14.4452 4.69033 12 4.69033C9.80926 4.69033 7.82845 5.65855 6.22039 6.83498C4.60355 8.01783 3.28149 9.4708 2.3931 10.5765L2.31983 10.6675C1.78502 11.3315 1.34479 11.8781 1.34478 12.6903C1.34477 13.5025 1.78493 14.049 2.31963 14.7128L2.39287 14.8038C2.95187 15.4996 3.67999 16.3296 4.54277 17.1426L1.28805 19.4691C0.957085 19.7057 0.903424 20.1372 1.1682 20.4329C1.43297 20.7287 1.91592 20.7766 2.24688 20.54L22.712 5.9115ZM12 6.06176C13.8191 6.06176 15.5838 6.93883 17.1339 8.1424L14.4564 10.0563C13.7913 9.56075 12.9346 9.26175 12 9.26175C9.88077 9.26175 8.1628 10.7968 8.1628 12.6903C8.1628 13.2529 8.31494 13.7847 8.58427 14.2537L5.74588 16.2826C4.90578 15.5013 4.19052 14.6896 3.63973 14.0041C3.00143 13.2096 2.87966 13.0181 2.87966 12.6903C2.87966 12.3625 3.00148 12.1709 3.63995 11.3763C4.4885 10.3202 5.72079 8.97296 7.19276 7.89609C8.6735 6.8128 10.316 6.06176 12 6.06176ZM12 10.6332C12.4464 10.6332 12.8629 10.7464 13.216 10.943L9.8249 13.3669C9.74244 13.1552 9.69768 12.9277 9.69768 12.6903C9.69768 11.5542 10.7285 10.6332 12 10.6332Z" fill="#8B8B8B"/>
  <path d="M20.5906 9.39044C20.3223 9.09721 19.8389 9.05377 19.5107 9.29342C19.1825 9.53307 19.1339 9.96506 19.4021 10.2583C19.7607 10.6504 20.0818 11.0299 20.36 11.3762C20.9985 12.1709 21.1204 12.3625 21.1204 12.6903C21.1204 13.0181 20.9985 13.2097 20.3601 14.0043C19.5115 15.0604 18.2792 16.4077 16.8072 17.4845C15.3265 18.5678 13.684 19.3189 12 19.3189C10.5625 19.3189 9.1535 18.7721 7.84307 17.9311C7.49882 17.7102 7.01931 17.7805 6.77205 18.0881C6.52478 18.3956 6.60341 18.8241 6.94766 19.045C8.40532 19.9805 10.125 20.6903 12 20.6903C14.1907 20.6903 16.1716 19.7221 17.7796 18.5456C19.3965 17.3628 20.7185 15.9098 21.6069 14.8041L21.6802 14.7131C22.215 14.0491 22.6552 13.5025 22.6552 12.6903C22.6552 11.8781 22.215 11.3315 21.6801 10.6675L21.6068 10.5764C21.3125 10.2101 20.972 9.80752 20.5906 9.39044Z" fill="#8B8B8B"/>
  <path d="M15.8372 12.6903C15.8372 12.3116 15.4936 12.0046 15.0698 12.0046C14.6459 12.0046 14.3023 12.3116 14.3023 12.6903C14.3023 13.8264 13.2715 14.7474 12 14.7474C11.5762 14.7474 11.2326 15.0545 11.2326 15.4332C11.2326 15.8119 11.5762 16.1189 12 16.1189C14.1192 16.1189 15.8372 14.5839 15.8372 12.6903Z" fill="#8B8B8B"/>
</svg>