<svg xmlns="http://www.w3.org/2000/svg" width="149" height="32" viewBox="0 0 149 32" fill="none">
  <path d="M34.3701 25.1762V7.66803H43.0105C44.2831 7.66803 45.3297 7.89773 46.1502 8.35713C46.9875 8.81652 47.6154 9.46309 48.034 10.2968C48.4526 11.1305 48.6619 12.1259 48.6619 13.2829C48.6619 14.4229 48.4443 15.4183 48.0089 16.269C47.5735 17.1197 46.9205 17.7833 46.0497 18.2597C45.1957 18.7191 44.1241 18.9488 42.8347 18.9488H37.6354V25.1762H34.3701ZM37.6354 16.1159H42.7342C43.5715 16.1159 44.2162 15.8691 44.6683 15.3757C45.1371 14.8653 45.3716 14.1677 45.3716 13.2829C45.3716 12.6874 45.2711 12.1854 45.0702 11.7771C44.8692 11.3687 44.5762 11.054 44.191 10.8328C43.8059 10.6116 43.3203 10.501 42.7342 10.501H37.6354V16.1159Z" fill="white"/>
  <path d="M56.5528 25.4825C55.1127 25.4825 53.907 25.2358 52.9358 24.7423C51.9646 24.2319 51.2362 23.4577 50.7506 22.4198C50.265 21.3819 50.0222 20.0633 50.0222 18.4639C50.0222 16.8475 50.265 15.5289 50.7506 14.508C51.2362 13.4701 51.9646 12.7044 52.9358 12.211C53.907 11.7005 55.1127 11.4453 56.5528 11.4453C58.0096 11.4453 59.2152 11.7005 60.1697 12.211C61.1409 12.7044 61.8693 13.4701 62.3549 14.508C62.8405 15.5289 63.0833 16.8475 63.0833 18.4639C63.0833 20.0633 62.8405 21.3819 62.3549 22.4198C61.8693 23.4577 61.1409 24.2319 60.1697 24.7423C59.2152 25.2358 58.0096 25.4825 56.5528 25.4825ZM56.5528 22.9303C57.3565 22.9303 58.0012 22.7771 58.4868 22.4709C58.9891 22.1476 59.3492 21.6712 59.5668 21.0416C59.8013 20.3951 59.9185 19.5954 59.9185 18.6426V18.2852C59.9185 17.3324 59.8013 16.5412 59.5668 15.9117C59.3492 15.2651 58.9891 14.7887 58.4868 14.4824C58.0012 14.1592 57.3565 13.9975 56.5528 13.9975C55.749 13.9975 55.0959 14.1592 54.5936 14.4824C54.108 14.7887 53.748 15.2651 53.5135 15.9117C53.2959 16.5412 53.187 17.3324 53.187 18.2852V18.6426C53.187 19.5954 53.2959 20.3951 53.5135 21.0416C53.748 21.6712 54.108 22.1476 54.5936 22.4709C55.0959 22.7771 55.749 22.9303 56.5528 22.9303Z" fill="white"/>
  <path d="M65.6869 25.1762V6.72371H68.7512V25.1762H65.6869Z" fill="white"/>
  <path d="M72.0153 25.1762V6.72371H75.0796V17.4685L79.8268 11.7516H83.4186L78.9979 16.9581L83.6698 25.1762H80.1533L77.0388 19.2296L75.0796 21.1437V25.1762H72.0153Z" fill="white"/>
  <path d="M88.4064 25.4825C88.038 25.4825 87.611 25.4314 87.1254 25.3294C86.6565 25.2443 86.1961 25.0741 85.7439 24.8189C85.3086 24.5637 84.9486 24.1894 84.6639 23.6959C84.3792 23.1855 84.2369 22.5219 84.2369 21.7052C84.2369 20.7864 84.4378 20.0293 84.8397 19.4337C85.2416 18.8212 85.8025 18.3448 86.5226 18.0045C87.2594 17.6472 88.1301 17.4005 89.1348 17.2644C90.1562 17.1112 91.2698 17.0347 92.4754 17.0347V15.9372C92.4754 15.5459 92.4168 15.1971 92.2996 14.8908C92.1824 14.5845 91.9647 14.3463 91.6465 14.1762C91.3451 13.989 90.8846 13.8954 90.2651 13.8954C89.6455 13.8954 89.1599 13.972 88.8083 14.1251C88.4566 14.2783 88.2138 14.4654 88.0799 14.6866C87.9459 14.9078 87.8789 15.1375 87.8789 15.3757V15.733H84.9151C84.8983 15.648 84.8899 15.5629 84.8899 15.4778C84.8899 15.3927 84.8899 15.2906 84.8899 15.1715C84.8899 14.4059 85.116 13.7423 85.5681 13.1808C86.0202 12.6193 86.6482 12.194 87.4519 11.9047C88.2557 11.5984 89.185 11.4453 90.24 11.4453C91.4456 11.4453 92.4336 11.6155 93.2038 11.9557C93.9908 12.296 94.5769 12.781 94.962 13.4105C95.3472 14.0401 95.5397 14.8057 95.5397 15.7075V22.037C95.5397 22.3603 95.6318 22.59 95.816 22.7261C96.0002 22.8622 96.2012 22.9303 96.4189 22.9303H97.2226V25.0741C97.0552 25.1422 96.8124 25.2188 96.4942 25.3038C96.1761 25.4059 95.7826 25.457 95.3137 25.457C94.8783 25.457 94.4848 25.3804 94.1332 25.2273C93.7983 25.0912 93.5136 24.887 93.2792 24.6147C93.0447 24.3425 92.8773 24.0192 92.7768 23.6449H92.6261C92.3415 24.0022 91.9982 24.3255 91.5963 24.6147C91.2112 24.887 90.7507 25.0997 90.2148 25.2528C89.6958 25.4059 89.0929 25.4825 88.4064 25.4825ZM89.3357 22.9303C89.8381 22.9303 90.2818 22.8537 90.667 22.7006C91.0688 22.5474 91.3954 22.3348 91.6465 22.0625C91.9145 21.7903 92.1154 21.4585 92.2494 21.0672C92.4001 20.6758 92.4754 20.2504 92.4754 19.791V19.1785C91.5544 19.1785 90.7005 19.2381 89.9134 19.3572C89.1432 19.4763 88.5236 19.6975 88.0547 20.0208C87.6026 20.344 87.3766 20.8034 87.3766 21.3989C87.3766 21.7052 87.4436 21.9774 87.5775 22.2157C87.7282 22.4368 87.9459 22.6155 88.2306 22.7516C88.532 22.8707 88.9004 22.9303 89.3357 22.9303Z" fill="white"/>
  <path d="M105.679 25.4825C104.724 25.4825 103.812 25.3804 102.941 25.1762C102.07 24.955 101.3 24.6232 100.63 24.1809C99.9604 23.7215 99.4329 23.16 99.0478 22.4964C98.6626 21.8158 98.4701 21.0161 98.4701 20.0973C98.4701 19.9952 98.4701 19.8931 98.4701 19.791C98.4868 19.689 98.4952 19.6124 98.4952 19.5614H101.786C101.786 19.5954 101.777 19.6634 101.76 19.7655C101.76 19.8506 101.76 19.9272 101.76 19.9952C101.76 20.5567 101.92 21.0416 102.238 21.45C102.556 21.8413 103.016 22.1476 103.619 22.3688C104.222 22.573 104.934 22.6751 105.754 22.6751C106.307 22.6751 106.792 22.641 107.211 22.573C107.646 22.5049 108.015 22.4113 108.316 22.2922C108.634 22.1561 108.894 22.003 109.095 21.8328C109.296 21.6457 109.438 21.4415 109.522 21.2203C109.622 20.9991 109.672 20.7609 109.672 20.5057C109.672 20.0122 109.522 19.6039 109.22 19.2806C108.919 18.9573 108.509 18.6851 107.99 18.4639C107.487 18.2427 106.91 18.047 106.256 17.8769C105.62 17.6897 104.959 17.5026 104.272 17.3154C103.602 17.1282 102.941 16.907 102.288 16.6518C101.652 16.3796 101.074 16.0563 100.555 15.682C100.052 15.3077 99.6506 14.8398 99.3492 14.2783C99.0478 13.6998 98.897 13.0107 98.897 12.211C98.897 11.3943 99.0645 10.6796 99.3994 10.0671C99.751 9.45458 100.237 8.95264 100.856 8.5613C101.493 8.15295 102.229 7.85519 103.067 7.66803C103.904 7.46385 104.816 7.36176 105.804 7.36176C106.725 7.36176 107.588 7.46385 108.391 7.66803C109.212 7.85519 109.932 8.16146 110.552 8.58682C111.171 8.99518 111.657 9.52264 112.008 10.1692C112.36 10.7987 112.536 11.5559 112.536 12.4407V12.7469H109.296V12.4917C109.296 11.9983 109.145 11.5814 108.844 11.2411C108.559 10.9008 108.149 10.6371 107.613 10.4499C107.094 10.2628 106.483 10.1692 105.779 10.1692C105.026 10.1692 104.381 10.2458 103.845 10.3989C103.309 10.535 102.899 10.7477 102.614 11.037C102.33 11.3092 102.187 11.6495 102.187 12.0578C102.187 12.4832 102.338 12.8405 102.64 13.1298C102.941 13.419 103.343 13.6657 103.845 13.8699C104.364 14.0741 104.942 14.2613 105.578 14.4314C106.231 14.6015 106.893 14.7887 107.563 14.9929C108.249 15.18 108.911 15.4012 109.547 15.6565C110.2 15.9117 110.778 16.235 111.28 16.6263C111.799 17.0006 112.209 17.4685 112.511 18.03C112.812 18.5915 112.963 19.2636 112.963 20.0463C112.963 21.3564 112.645 22.4113 112.008 23.211C111.389 24.0107 110.526 24.5892 109.421 24.9465C108.333 25.3038 107.085 25.4825 105.679 25.4825Z" fill="white"/>
  <path d="M119.116 25.4825C118.748 25.4825 118.321 25.4314 117.835 25.3294C117.367 25.2443 116.906 25.0741 116.454 24.8189C116.019 24.5637 115.659 24.1894 115.374 23.6959C115.089 23.1855 114.947 22.5219 114.947 21.7052C114.947 20.7864 115.148 20.0293 115.55 19.4337C115.952 18.8212 116.513 18.3448 117.233 18.0045C117.969 17.6472 118.84 17.4005 119.845 17.2644C120.866 17.1112 121.98 17.0347 123.185 17.0347V15.9372C123.185 15.5459 123.127 15.1971 123.01 14.8908C122.892 14.5845 122.675 14.3463 122.357 14.1762C122.055 13.989 121.595 13.8954 120.975 13.8954C120.356 13.8954 119.87 13.972 119.518 14.1251C119.167 14.2783 118.924 14.4654 118.79 14.6866C118.656 14.9078 118.589 15.1375 118.589 15.3757V15.733H115.625C115.608 15.648 115.6 15.5629 115.6 15.4778C115.6 15.3927 115.6 15.2906 115.6 15.1715C115.6 14.4059 115.826 13.7423 116.278 13.1808C116.73 12.6193 117.358 12.194 118.162 11.9047C118.966 11.5984 119.895 11.4453 120.95 11.4453C122.156 11.4453 123.144 11.6155 123.914 11.9557C124.701 12.296 125.287 12.781 125.672 13.4105C126.057 14.0401 126.25 14.8057 126.25 15.7075V22.037C126.25 22.3603 126.342 22.59 126.526 22.7261C126.71 22.8622 126.911 22.9303 127.129 22.9303H127.933V25.0741C127.765 25.1422 127.522 25.2188 127.204 25.3038C126.886 25.4059 126.493 25.457 126.024 25.457C125.588 25.457 125.195 25.3804 124.843 25.2273C124.508 25.0912 124.224 24.887 123.989 24.6147C123.755 24.3425 123.587 24.0192 123.487 23.6449H123.336C123.051 24.0022 122.708 24.3255 122.306 24.6147C121.921 24.887 121.461 25.0997 120.925 25.2528C120.406 25.4059 119.803 25.4825 119.116 25.4825ZM120.046 22.9303C120.548 22.9303 120.992 22.8537 121.377 22.7006C121.779 22.5474 122.105 22.3348 122.357 22.0625C122.624 21.7903 122.825 21.4585 122.959 21.0672C123.11 20.6758 123.185 20.2504 123.185 19.791V19.1785C122.264 19.1785 121.41 19.2381 120.623 19.3572C119.853 19.4763 119.234 19.6975 118.765 20.0208C118.313 20.344 118.087 20.8034 118.087 21.3989C118.087 21.7052 118.154 21.9774 118.288 22.2157C118.438 22.4368 118.656 22.6155 118.941 22.7516C119.242 22.8707 119.61 22.9303 120.046 22.9303Z" fill="white"/>
  <path d="M130.31 25.1762V14.3038H128.401V11.7516H130.31V10.0416C130.31 9.44607 130.402 8.88458 130.587 8.35713C130.788 7.81265 131.131 7.37027 131.616 7.02997C132.102 6.68968 132.78 6.51953 133.651 6.51953C133.902 6.51953 134.153 6.53655 134.404 6.57057C134.672 6.6046 134.924 6.65565 135.158 6.72371C135.392 6.77475 135.593 6.8343 135.761 6.90236V9.07175H134.505C134.137 9.07175 133.852 9.17383 133.651 9.37801C133.467 9.56517 133.375 9.84592 133.375 10.2202V11.7516H135.761V14.3038H133.375V25.1762H130.31Z" fill="white"/>
  <path d="M142.938 25.4825C141.532 25.4825 140.36 25.2358 139.422 24.7423C138.484 24.2319 137.781 23.4577 137.312 22.4198C136.843 21.3819 136.609 20.0633 136.609 18.4639C136.609 16.8475 136.843 15.5289 137.312 14.508C137.781 13.4701 138.484 12.7044 139.422 12.211C140.36 11.7005 141.532 11.4453 142.938 11.4453C144.211 11.4453 145.274 11.692 146.128 12.1854C146.999 12.6619 147.652 13.402 148.087 14.4059C148.523 15.4097 148.74 16.7114 148.74 18.3108V19.2296H139.748C139.782 20.0633 139.908 20.7694 140.125 21.3479C140.343 21.9094 140.678 22.3348 141.13 22.624C141.599 22.8962 142.21 23.0324 142.963 23.0324C143.349 23.0324 143.709 22.9813 144.044 22.8792C144.378 22.7771 144.671 22.624 144.923 22.4198C145.174 22.1986 145.366 21.9264 145.5 21.6031C145.651 21.2798 145.726 20.9055 145.726 20.4801H148.74C148.74 21.3309 148.59 22.071 148.288 22.7006C148.004 23.3301 147.593 23.8491 147.058 24.2574C146.539 24.6658 145.927 24.972 145.224 25.1762C144.521 25.3804 143.759 25.4825 142.938 25.4825ZM139.799 17.0347H145.551C145.551 16.4732 145.484 15.9968 145.35 15.6054C145.232 15.2141 145.057 14.8908 144.822 14.6356C144.604 14.3804 144.337 14.2017 144.018 14.0996C143.7 13.9805 143.34 13.921 142.938 13.921C142.285 13.921 141.733 14.0316 141.281 14.2527C140.845 14.4739 140.51 14.8142 140.276 15.2736C140.041 15.733 139.882 16.32 139.799 17.0347Z" fill="white"/>
  <path d="M3.50273 31.9964H0V22.3685C0.686207 22.3371 1.28365 22.2848 1.88109 22.2848C6.20659 22.2778 10.5287 22.2882 14.8542 22.2778C17.3668 22.2708 19.009 20.8226 18.9987 18.6695C18.9885 16.5303 17.3429 15.0856 14.82 15.0542C12.659 15.0263 10.4945 15.0437 8.33349 15.0542C7.08739 15.0577 6.13148 14.6075 6.17586 13.1977C6.21341 11.9205 7.10787 11.4459 8.2891 11.4494C10.7369 11.4599 13.1847 11.3866 15.6291 11.4704C19.4869 11.5995 22.5117 14.8274 22.5185 18.7114C22.5253 22.5988 19.504 25.7639 15.5813 25.8477C12.1674 25.921 8.74999 25.9524 5.34285 25.8302C3.77584 25.7744 3.3491 26.3292 3.47883 27.8228C3.5949 29.1419 3.50273 30.4819 3.50273 31.9999V31.9964Z" fill="white"/>
  <path d="M22.4673 0V9.57906C21.8187 9.61047 21.2212 9.65932 20.6204 9.66281C16.2983 9.66979 11.9728 9.65583 7.65071 9.67328C5.13121 9.68375 3.50616 11.1389 3.53006 13.299C3.55396 15.3823 5.15169 16.8375 7.55854 16.8864C9.77761 16.9282 11.9967 16.9108 14.2158 16.8933C15.3936 16.8829 16.3154 17.3121 16.3495 18.6033C16.387 19.9817 15.4789 20.5016 14.2089 20.4947C11.7611 20.4807 9.31331 20.547 6.87233 20.4702C3.00089 20.3516 1.96369e-05 17.1376 0.00684757 13.2292C0.0136755 9.42552 2.99748 6.22203 6.79381 6.11734C10.317 6.01963 13.8471 6.03359 17.3737 6.10338C18.613 6.12781 19.1421 5.80327 19.0431 4.45278C18.9373 3.01505 19.0192 1.56336 19.0192 0H22.4673V0Z" fill="white"/>
</svg>