<svg width="16" height="16" viewBox="0 0 16 16" fill="none" xmlns="http://www.w3.org/2000/svg">
<g id="Hicon / Outline / Down 4">
<g id="Down 1">
<path id="Vector" d="M12.1248 4.58223C12.3201 4.38697 12.3201 4.07039 12.1248 3.87513C11.9295 3.67986 11.6129 3.67986 11.4177 3.87513L4.33204 10.9608C4.31261 10.8797 4.29653 10.7842 4.28406 10.67C4.24568 10.3185 4.24698 9.85708 4.24997 9.1855L4.25736 7.53074C4.25859 7.2546 4.03573 7.02975 3.75959 7.02852C3.48345 7.02728 3.2586 7.25014 3.25737 7.52628L3.24985 9.21086C3.24701 9.84533 3.24468 10.3639 3.28997 10.7786C3.33706 11.2098 3.44077 11.5916 3.69502 11.9201C3.80649 12.0641 3.93578 12.1934 4.07983 12.3049C4.40836 12.5591 4.79013 12.6629 5.22135 12.7099C5.63603 12.7552 6.15458 12.7529 6.78905 12.7501L8.47364 12.7426C8.74978 12.7413 8.97263 12.5165 8.9714 12.2403C8.97017 11.9642 8.74531 11.7413 8.46917 11.7426L6.81441 11.7499C6.14284 11.7529 5.68141 11.7542 5.32991 11.7159C5.21568 11.7034 5.12022 11.6873 5.03915 11.6679L12.1248 4.58223Z" fill="#06D6A0"/>
</g>
</g>
</svg>
