<svg width="16" height="16" viewBox="0 0 16 16" fill="none" xmlns="http://www.w3.org/2000/svg">
<g id="Hicon / Outline / Up 4">
<g id="Up 1">
<path id="Vector" d="M12.305 4.07975C12.1935 3.9357 12.0642 3.80641 11.9202 3.69493C11.5916 3.44069 11.2099 3.33698 10.7786 3.28989C10.364 3.2446 9.84541 3.24692 9.21094 3.24976L7.52637 3.25728C7.25023 3.25851 7.02737 3.48337 7.0286 3.75951C7.02983 4.03565 7.25469 4.2585 7.53083 4.25727L9.18559 4.24989C9.85717 4.24689 10.3186 4.24559 10.6701 4.28398C10.7843 4.29645 10.8798 4.31253 10.9609 4.33196L3.87521 11.4176C3.67995 11.6129 3.67995 11.9294 3.87521 12.1247C4.07047 12.32 4.38706 12.32 4.58232 12.1247L11.668 5.03906C11.6874 5.12013 11.7035 5.2156 11.7159 5.32983C11.7543 5.68132 11.753 6.14275 11.75 6.81433L11.7426 8.46909C11.7414 8.74523 11.9643 8.97008 12.2404 8.97132C12.5166 8.97255 12.7414 8.74969 12.7426 8.47355L12.7502 6.78897C12.753 6.1545 12.7553 5.63595 12.71 5.22127C12.6629 4.79005 12.5592 4.40827 12.305 4.07975Z" fill="#E63946"/>
</g>
</g>
</svg>
