<svg width="16" height="16" viewBox="0 0 16 16" fill="none" xmlns="http://www.w3.org/2000/svg">
<path d="M5.5 4.5V3C5.5 2.86739 5.55268 2.74021 5.64645 2.64645C5.74021 2.55268 5.86739 2.5 6 2.5C6.13261 2.5 6.25979 2.55268 6.35355 2.64645C6.44732 2.74021 6.5 2.86739 6.5 3V4.5C6.5 4.63261 6.44732 4.75979 6.35355 4.85355C6.25979 4.94732 6.13261 5 6 5C5.86739 5 5.74021 4.94732 5.64645 4.85355C5.55268 4.75979 5.5 4.63261 5.5 4.5ZM10 11C9.86739 11 9.74021 11.0527 9.64645 11.1464C9.55268 11.2402 9.5 11.3674 9.5 11.5V13C9.5 13.1326 9.55268 13.2598 9.64645 13.3536C9.74021 13.4473 9.86739 13.5 10 13.5C10.1326 13.5 10.2598 13.4473 10.3536 13.3536C10.4473 13.2598 10.5 13.1326 10.5 13V11.5C10.5 11.3674 10.4473 11.2402 10.3536 11.1464C10.2598 11.0527 10.1326 11 10 11ZM3 6.5H4.5C4.63261 6.5 4.75979 6.44732 4.85355 6.35355C4.94732 6.25979 5 6.13261 5 6C5 5.86739 4.94732 5.74021 4.85355 5.64645C4.75979 5.55268 4.63261 5.5 4.5 5.5H3C2.86739 5.5 2.74021 5.55268 2.64645 5.64645C2.55268 5.74021 2.5 5.86739 2.5 6C2.5 6.13261 2.55268 6.25979 2.64645 6.35355C2.74021 6.44732 2.86739 6.5 3 6.5ZM13 9.5H11.5C11.3674 9.5 11.2402 9.55268 11.1464 9.64645C11.0527 9.74021 11 9.86739 11 10C11 10.1326 11.0527 10.2598 11.1464 10.3536C11.2402 10.4473 11.3674 10.5 11.5 10.5H13C13.1326 10.5 13.2598 10.4473 13.3536 10.3536C13.4473 10.2598 13.5 10.1326 13.5 10C13.5 9.86739 13.4473 9.74021 13.3536 9.64645C13.2598 9.55268 13.1326 9.5 13 9.5ZM7.61875 11.2063L6.9125 11.9125C6.53205 12.2572 6.03361 12.4424 5.52037 12.4298C5.00713 12.4172 4.51841 12.2076 4.15538 11.8446C3.79236 11.4816 3.58284 10.9929 3.5702 10.4796C3.55757 9.96639 3.74278 9.46795 4.0875 9.0875L4.79375 8.38125C4.88764 8.28645 4.94031 8.15842 4.94031 8.025C4.94031 7.89158 4.88764 7.76355 4.79375 7.66875C4.70002 7.57524 4.57302 7.52273 4.44063 7.52273C4.30823 7.52273 4.18123 7.57524 4.0875 7.66875L3.38125 8.38125C2.81932 8.94318 2.50363 9.70531 2.50363 10.5C2.50363 11.2947 2.81932 12.0568 3.38125 12.6187C3.94318 13.1807 4.70531 13.4964 5.5 13.4964C6.29469 13.4964 7.05682 13.1807 7.61875 12.6187L8.33125 11.9125C8.42476 11.8188 8.47727 11.6918 8.47727 11.5594C8.47727 11.427 8.42476 11.3 8.33125 11.2063C8.23645 11.1124 8.10842 11.0597 7.975 11.0597C7.84158 11.0597 7.71355 11.1124 7.61875 11.2063ZM11.9125 4.0875C12.0984 4.27274 12.246 4.49286 12.3467 4.73526C12.4473 4.97765 12.4992 5.23753 12.4992 5.5C12.4992 5.76247 12.4473 6.02235 12.3467 6.26474C12.246 6.50714 12.0984 6.72726 11.9125 6.9125L11.2063 7.61875C11.1124 7.71355 11.0597 7.84158 11.0597 7.975C11.0597 8.10842 11.1124 8.23645 11.2063 8.33125C11.3022 8.42299 11.4297 8.47444 11.5625 8.475C11.6935 8.47478 11.8192 8.42316 11.9125 8.33125L12.6187 7.61875C13.1807 7.05682 13.4964 6.29469 13.4964 5.5C13.4964 4.70531 13.1807 3.94318 12.6187 3.38125C12.0568 2.81932 11.2947 2.50363 10.5 2.50363C9.70531 2.50363 8.94318 2.81932 8.38125 3.38125L7.66875 4.0875C7.57524 4.18123 7.52273 4.30823 7.52273 4.44063C7.52273 4.57302 7.57524 4.70002 7.66875 4.79375C7.76355 4.88764 7.89158 4.94031 8.025 4.94031C8.15842 4.94031 8.28645 4.88764 8.38125 4.79375L9.0875 4.0875C9.27274 3.90155 9.49286 3.75401 9.73526 3.65333C9.97765 3.55266 10.2375 3.50083 10.5 3.50083C10.7625 3.50083 11.0224 3.55266 11.2647 3.65333C11.5071 3.75401 11.7273 3.90155 11.9125 4.0875Z" fill="white"/>
</svg>
